<?xml version="1.0" encoding="UTF-8" standalone="no"?>
<svg
   width="420"
   height="420"
   stroke="#000"
   fill="none"
   version="1.1"
   id="svg2"
   sodipodi:docname="internet-icon-01.svg"
   inkscape:version="1.3 (0e150ed6c4, 2023-07-21)"
   xmlns:inkscape="http://www.inkscape.org/namespaces/inkscape"
   xmlns:sodipodi="http://sodipodi.sourceforge.net/DTD/sodipodi-0.dtd"
   xmlns="http://www.w3.org/2000/svg"
   xmlns:svg="http://www.w3.org/2000/svg">
  <defs
     id="defs2" />
  <sodipodi:namedview
     id="namedview2"
     pagecolor="#505050"
     bordercolor="#eeeeee"
     borderopacity="1"
     inkscape:showpageshadow="0"
     inkscape:pageopacity="0"
     inkscape:pagecheckerboard="0"
     inkscape:deskcolor="#d1d1d1"
     inkscape:zoom="3.1166667"
     inkscape:cx="210"
     inkscape:cy="210"
     inkscape:window-width="2560"
     inkscape:window-height="1547"
     inkscape:window-x="1192"
     inkscape:window-y="-8"
     inkscape:window-maximized="1"
     inkscape:current-layer="svg2" />
  <path
     stroke-width="26"
     d="m 209,15 a 195,195 0 1 0 2,0 z"
     id="background"
     style="display:inline;fill:#d1d3d4;fill-opacity:1;stroke:none;stroke-opacity:0" />
  <path
     stroke-width="26"
     d="m 209,15 a 195,195 0 1 0 2,0 z"
     id="path1"
     style="display:inline;stroke:#403e3f;stroke-opacity:1" />
  <path
     stroke-width="18"
     d="M 210,15 V 405 M 405,210 H 15 M 59,90 a 260,260 0 0 0 302,0 m 0,240 A 260,260 0 0 0 59,330 M 195,20 a 250,250 0 0 0 0,382 m 30,0 a 250,250 0 0 0 0,-382"
     id="path2"
     style="display:inline;stroke:#403e3f;stroke-opacity:1" />
</svg>
