<?xml version="1.0" encoding="UTF-8" standalone="no"?>
<svg
   version="1.0"
   x="0px"
   y="0px"
   viewBox="0 0 100 100"
   enable-background="new 0 0 100 75.422"
   xml:space="preserve"
   id="svg1"
   sodipodi:docname="mail-01.svg"
   width="100"
   height="100"
   inkscape:version="1.3 (0e150ed6c4, 2023-07-21)"
   xmlns:inkscape="http://www.inkscape.org/namespaces/inkscape"
   xmlns:sodipodi="http://sodipodi.sourceforge.net/DTD/sodipodi-0.dtd"
   xmlns="http://www.w3.org/2000/svg"
   xmlns:svg="http://www.w3.org/2000/svg"><defs
     id="defs1" /><sodipodi:namedview
     id="namedview1"
     pagecolor="#505050"
     bordercolor="#eeeeee"
     borderopacity="1"
     inkscape:showpageshadow="0"
     inkscape:pageopacity="0"
     inkscape:pagecheckerboard="0"
     inkscape:deskcolor="#d1d1d1"
     inkscape:export-bgcolor="#ffffff02"
     inkscape:zoom="7.635"
     inkscape:cx="9.7576948"
     inkscape:cy="46.299934"
     inkscape:window-width="2560"
     inkscape:window-height="1547"
     inkscape:window-x="1192"
     inkscape:window-y="-8"
     inkscape:window-maximized="1"
     inkscape:current-layer="svg1" /><rect
     style="opacity:1;fill:#d1d3d4;stroke:#413e3e;stroke-width:0"
     id="rect1"
     width="100"
     height="75.421997"
     x="0"
     y="12" /><path
     d="M 100,87.422 H 0 V 12 H 100 Z M 11.833,80.445 H 88.166 L 63.048,54.73 58.292,59.517 c -2.059,2.058 -5.007,3.236 -8.105,3.236 -0.017,0 -0.035,-0.003 -0.052,-0.003 -3.11,-0.013 -6.067,-1.216 -8.115,-3.304 L 37.185,54.551 Z M 6.977,23.973 V 75.434 L 32.282,49.59 Z M 67.964,49.78 93.023,75.431 V 24.551 Z M 11.849,18.979 46.992,54.552 c 0.761,0.774 1.916,1.218 3.174,1.221 0.008,0 0.014,0 0.021,0 1.24,0 2.421,-0.438 3.161,-1.182 L 88.722,18.979 Z"
     id="path1" /></svg>
